<?xml version="1.0" encoding="UTF-8" standalone="no"?><svg xmlns="http://www.w3.org/2000/svg" xmlns:xlink="http://www.w3.org/1999/xlink" contentScriptType="application/ecmascript" contentStyleType="text/css" height="387px" preserveAspectRatio="none" style="width:563px;height:387px;" version="1.1" viewBox="0 0 563 387" width="563px" zoomAndPan="magnify"><defs><filter height="300%" id="f3dyp5u8jgrme" width="300%" x="-1" y="-1"><feGaussianBlur result="blurOut" stdDeviation="2.0"/><feColorMatrix in="blurOut" result="blurOut2" type="matrix" values="0 0 0 0 0 0 0 0 0 0 0 0 0 0 0 0 0 0 .4 0"/><feOffset dx="4.0" dy="4.0" in="blurOut2" result="blurOut3"/><feBlend in="SourceGraphic" in2="blurOut3" mode="normal"/></filter></defs><g><rect fill="#FFFFFF" filter="url(#f3dyp5u8jgrme)" height="318.3281" style="stroke: #A80036; stroke-width: 1.0;" width="10" x="219" y="48.2969"/><rect fill="#FFFFFF" filter="url(#f3dyp5u8jgrme)" height="158.6641" style="stroke: #A80036; stroke-width: 1.0;" width="10" x="346.5" y="69.4297"/><line style="stroke: #A80036; stroke-width: 1.0; stroke-dasharray: 5.0,5.0;" x1="39" x2="39" y1="38.2969" y2="375.625"/><line style="stroke: #A80036; stroke-width: 1.0; stroke-dasharray: 5.0,5.0;" x1="223.5" x2="223.5" y1="38.2969" y2="375.625"/><line style="stroke: #A80036; stroke-width: 1.0; stroke-dasharray: 5.0,5.0;" x1="351.5" x2="351.5" y1="38.2969" y2="375.625"/><line style="stroke: #A80036; stroke-width: 1.0; stroke-dasharray: 5.0,5.0;" x1="532.5" x2="532.5" y1="38.2969" y2="375.625"/><rect fill="#FEFECE" filter="url(#f3dyp5u8jgrme)" height="30.2969" style="stroke: #A80036; stroke-width: 1.5;" width="58" x="8" y="3"/><text fill="#000000" font-family="sans-serif" font-size="14" lengthAdjust="spacingAndGlyphs" textLength="44" x="15" y="22.9951">Kernel</text><rect fill="#FEFECE" filter="url(#f3dyp5u8jgrme)" height="30.2969" style="stroke: #A80036; stroke-width: 1.5;" width="119" x="162.5" y="3"/><text fill="#000000" font-family="sans-serif" font-size="14" lengthAdjust="spacingAndGlyphs" textLength="105" x="169.5" y="22.9951">Parent process</text><rect fill="#FEFECE" filter="url(#f3dyp5u8jgrme)" height="30.2969" style="stroke: #A80036; stroke-width: 1.5;" width="108" x="295.5" y="3"/><text fill="#000000" font-family="sans-serif" font-size="14" lengthAdjust="spacingAndGlyphs" textLength="94" x="302.5" y="22.9951">Child process</text><rect fill="#FEFECE" filter="url(#f3dyp5u8jgrme)" height="30.2969" style="stroke: #A80036; stroke-width: 1.5;" width="44" x="508.5" y="3"/><text fill="#000000" font-family="sans-serif" font-size="14" lengthAdjust="spacingAndGlyphs" textLength="30" x="515.5" y="22.9951">Pipe</text><rect fill="#FFFFFF" filter="url(#f3dyp5u8jgrme)" height="318.3281" style="stroke: #A80036; stroke-width: 1.0;" width="10" x="219" y="48.2969"/><rect fill="#FFFFFF" filter="url(#f3dyp5u8jgrme)" height="158.6641" style="stroke: #A80036; stroke-width: 1.0;" width="10" x="346.5" y="69.4297"/><polygon fill="#A80036" points="334.5,65.4297,344.5,69.4297,334.5,73.4297,338.5,69.4297" style="stroke: #A80036; stroke-width: 1.0;"/><line style="stroke: #A80036; stroke-width: 1.0; stroke-dasharray: 2.0,2.0;" x1="229" x2="340.5" y1="69.4297" y2="69.4297"/><text fill="#000000" font-family="sans-serif" font-size="13" lengthAdjust="spacingAndGlyphs" textLength="24" x="236" y="64.3638">fork</text><polygon fill="#A80036" points="50,94.5625,40,98.5625,50,102.5625,46,98.5625" style="stroke: #A80036; stroke-width: 1.0;"/><line style="stroke: #A80036; stroke-width: 1.0;" x1="44" x2="218" y1="98.5625" y2="98.5625"/><text fill="#000000" font-family="sans-serif" font-size="13" lengthAdjust="spacingAndGlyphs" textLength="156" x="56" y="93.4966">wait for Child termitation</text><line style="stroke: #A80036; stroke-width: 1.0; stroke-dasharray: 2.0,2.0;" x1="356.5" x2="398.5" y1="127.6953" y2="127.6953"/><line style="stroke: #A80036; stroke-width: 1.0; stroke-dasharray: 2.0,2.0;" x1="398.5" x2="398.5" y1="127.6953" y2="140.6953"/><line style="stroke: #A80036; stroke-width: 1.0; stroke-dasharray: 2.0,2.0;" x1="357.5" x2="398.5" y1="140.6953" y2="140.6953"/><polygon fill="#A80036" points="367.5,136.6953,357.5,140.6953,367.5,144.6953,363.5,140.6953" style="stroke: #A80036; stroke-width: 1.0;"/><text fill="#000000" font-family="sans-serif" font-size="13" lengthAdjust="spacingAndGlyphs" textLength="62" x="363.5" y="122.6294">run specs</text><polygon fill="#A80036" points="520.5,165.8281,530.5,169.8281,520.5,173.8281,524.5,169.8281" style="stroke: #A80036; stroke-width: 1.0;"/><line style="stroke: #A80036; stroke-width: 1.0;" x1="356.5" x2="526.5" y1="169.8281" y2="169.8281"/><text fill="#000000" font-family="sans-serif" font-size="13" lengthAdjust="spacingAndGlyphs" textLength="77" x="363.5" y="164.7622">write results</text><polygon fill="#A80036" points="367.5,194.9609,357.5,198.9609,367.5,202.9609,363.5,198.9609" style="stroke: #A80036; stroke-width: 1.0;"/><line style="stroke: #A80036; stroke-width: 1.0;" x1="361.5" x2="531.5" y1="198.9609" y2="198.9609"/><text fill="#000000" font-family="sans-serif" font-size="13" lengthAdjust="spacingAndGlyphs" textLength="152" x="373.5" y="193.895">number of written bytes</text><polygon fill="#A80036" points="50,224.0938,40,228.0938,50,232.0938,46,228.0938" style="stroke: #A80036; stroke-width: 1.0;"/><line style="stroke: #A80036; stroke-width: 1.0; stroke-dasharray: 2.0,2.0;" x1="44" x2="350.5" y1="228.0938" y2="228.0938"/><text fill="#000000" font-family="sans-serif" font-size="13" lengthAdjust="spacingAndGlyphs" textLength="154" x="56" y="223.0278">notify about terminating</text><polygon fill="#A80036" points="207,253.2266,217,257.2266,207,261.2266,211,257.2266" style="stroke: #A80036; stroke-width: 1.0;"/><line style="stroke: #A80036; stroke-width: 1.0;" x1="39" x2="213" y1="257.2266" y2="257.2266"/><text fill="#000000" font-family="sans-serif" font-size="13" lengthAdjust="spacingAndGlyphs" textLength="145" x="46" y="252.1606">return Child exit status</text><polygon fill="#A80036" points="520.5,282.3594,530.5,286.3594,520.5,290.3594,524.5,286.3594" style="stroke: #A80036; stroke-width: 1.0;"/><line style="stroke: #A80036; stroke-width: 1.0;" x1="229" x2="526.5" y1="286.3594" y2="286.3594"/><text fill="#000000" font-family="sans-serif" font-size="13" lengthAdjust="spacingAndGlyphs" textLength="76" x="236" y="281.2935">read results</text><polygon fill="#A80036" points="240,311.4922,230,315.4922,240,319.4922,236,315.4922" style="stroke: #A80036; stroke-width: 1.0;"/><line style="stroke: #A80036; stroke-width: 1.0;" x1="234" x2="531.5" y1="315.4922" y2="315.4922"/><text fill="#000000" font-family="sans-serif" font-size="13" lengthAdjust="spacingAndGlyphs" textLength="29" x="246" y="310.4263">data</text><line style="stroke: #A80036; stroke-width: 1.0;" x1="229" x2="271" y1="344.625" y2="344.625"/><line style="stroke: #A80036; stroke-width: 1.0;" x1="271" x2="271" y1="344.625" y2="357.625"/><line style="stroke: #A80036; stroke-width: 1.0;" x1="230" x2="271" y1="357.625" y2="357.625"/><polygon fill="#A80036" points="240,353.625,230,357.625,240,361.625,236,357.625" style="stroke: #A80036; stroke-width: 1.0;"/><text fill="#000000" font-family="sans-serif" font-size="13" lengthAdjust="spacingAndGlyphs" textLength="97" x="236" y="339.5591">process results</text><!--MD5=[ec0cdb7950c7f0ba4751086e0f7ae615]
@startuml
participant Kernel
participant "Parent process" as Parent
participant "Child process" as Child
participant Pipe

hide footbox

activate Parent

Parent - -> Child: fork

activate Child

Parent -> Kernel: wait for Child termitation
Child - -> Child: run specs
Child -> Pipe: write results
Pipe -> Child: number of written bytes
Child - -> Kernel: notify about terminating

deactivate Child

Kernel -> Parent: return Child exit status
Parent -> Pipe: read results
Pipe -> Parent: data
Parent -> Parent: process results
@enduml

PlantUML version 1.2019.11(Sun Sep 22 10:02:15 UTC 2019)
(GPL source distribution)
Java Runtime: OpenJDK Runtime Environment
JVM: OpenJDK 64-Bit Server VM
Java Version: 1.8.0_222-heroku-b10
Operating System: Linux
Default Encoding: UTF-8
Language: en
Country: US
--></g></svg>